<svg xmlns="http://www.w3.org/2000/svg" viewBox="0 0 100 100">
  <g fill="none" fill-rule="evenodd" transform="translate(-2)">
    <path fill="#D6DDF1" fill-opacity=".4" d="M27.486798,21.2853102 L27.5134713,21.3395838 C27.6623324,21.6418975 27.8185855,21.9495297 27.9820992,22.2622724 C28.07259,22.4353442 28.1650723,22.6095503 28.2597451,22.7852788 C28.5526631,23.3289888 28.8666589,23.8874563 29.2009828,24.4594685 C29.4035788,24.8061092 29.6140125,25.1583344 29.8317907,25.5153187 C30.4588667,26.5432169 31.1466274,27.6102658 31.8917484,28.7112095 C32.3659385,29.4118389 32.8632196,30.1260007 33.3828179,30.8524553 C33.7317892,31.3403491 34.0904329,31.8332549 34.4588491,32.3312627 C34.9891855,33.0481467 35.5397858,33.7756201 36.1098263,34.5123809 C36.5474557,35.078 36.9962198,35.6486885 37.4560588,36.2242626 C37.6411567,36.4559467 37.8279839,36.6883419 38.0165804,36.9214904 C38.0908878,37.0133513 38.165467,37.1053256 38.2403194,37.1974145 C38.4543868,37.4607758 38.6706388,37.7250141 38.8890901,37.9901354 C39.0799846,38.2218111 39.2722229,38.4537584 39.4661119,38.6863417 C39.502448,38.7299294 39.538915,38.7736267 39.57544,38.8173461 L39.8155455,39.1040685 L39.8155455,39.1040685 L39.9181746,39.2262133 C40.2320667,39.5994226 40.5501299,39.9741852 40.8722719,40.3503548 L41.1065446,40.6233297 L41.1065446,40.6233297 L41.1989351,40.730662 C41.9821256,41.6397478 42.7888392,42.5567239 43.6177809,43.479539 C44.3045171,44.2440441 45.0064677,45.0125122 45.7229361,45.7838212 L45.7740348,45.8388095 C46.1307752,46.2225534 46.4911036,46.6069934 46.8549293,46.9919861 C48.1226191,48.3334337 49.4330608,49.6818822 50.7821462,51.0309676 C51.7139123,51.9627337 52.6453746,52.8760661 53.5745316,53.7697011 C54.1350595,54.3088007 54.6948558,54.8408327 55.2533732,55.365416 C55.4150726,55.5172911 55.5767539,55.668625 55.7383172,55.8193271 C56.6591005,56.6782122 57.576206,57.5167152 58.4874978,58.3334405 C59.2690411,59.0338817 60.0463045,59.7183016 60.8180432,60.3859155 C61.234887,60.7465157 61.6497353,61.1018873 62.0627786,61.4522411 C63.0462806,62.2864764 64.0198386,63.0924958 64.980505,63.8683745 C65.1758576,64.0261509 65.370898,64.1828575 65.5653817,64.3383007 L65.6938585,64.440868 C66.3639415,64.9751957 67.027341,65.4944513 67.6831385,65.9980549 C67.9544808,66.2064262 68.2246757,66.4122343 68.4935025,66.6153186 C68.7936534,66.8420655 69.0918321,67.065219 69.3882179,67.284926 C69.5741733,67.4227733 69.7597019,67.5594681 69.9445002,67.6947879 C70.0142218,67.7458421 70.083911,67.7967528 70.1534949,67.8474666 C70.2220043,67.8973972 70.2902812,67.9470423 70.3584551,67.9964966 C71.4008414,68.7526617 72.419415,69.4643745 73.4098136,70.1288565 C73.73372,70.3461757 74.0550269,70.558713 74.3731683,70.7660946 C74.729751,70.9985301 75.0818114,71.224145 75.4297054,71.4431754 C75.4654267,71.4656656 75.5017628,71.4884996 75.538053,71.5112615 C76.2159702,71.9364501 76.8771373,72.3360127 77.5208607,72.7095081 C77.5953381,72.7527209 77.6697104,72.7956586 77.7438461,72.8382447 C78.0447326,73.0110839 78.341683,73.1781102 78.6345802,73.3392475 C78.7462715,73.4006941 78.8572748,73.4612311 78.9676812,73.5209078 C79.354701,73.7301081 79.7351309,73.9291143 80.1078222,74.1172716 L80.4245355,74.2754756 C80.4362655,74.2812715 80.4479876,74.2870563 80.4597018,74.29283 C80.634151,74.3788145 80.8069353,74.4623897 80.9779094,74.5434786 C81.0213437,74.5640794 81.0652419,74.5847923 81.1090194,74.60534 C81.1782729,74.637843 81.2463673,74.6695369 81.3141645,74.700826 C81.3534449,74.7189555 81.3934326,74.7373177 81.4333158,74.7555381 C81.6008131,74.8320525 81.7656442,74.9057038 81.9286126,74.9768521 C82.0948052,75.0494059 82.2587513,75.1192282 82.4207262,75.1864313 C82.7283872,75.3140775 83.0288072,75.4322259 83.3218383,75.5407537 C83.4883228,75.6024104 83.6520922,75.6608484 83.8134344,75.7161609 C83.8329031,75.7228355 83.8526046,75.7295558 83.8722697,75.7362291 C83.9378099,75.7584684 84.0024712,75.780032 84.0667305,75.8010809 C84.1255724,75.8203559 84.1842834,75.8392646 84.2426522,75.8577369 C84.2946761,75.8742009 84.3463556,75.890296 84.3977623,75.9060442 C84.4203692,75.9129704 84.4433263,75.919951 84.4662285,75.9268621 C84.5396284,75.9490089 84.6119489,75.9702928 84.6837086,75.9908683 C84.7144451,75.9996821 84.7454174,76.0084607 84.776284,76.0171063 C84.9222327,76.0579835 85.0656237,76.0958358 85.2066131,76.1306907 C85.3312053,76.1614905 85.4537818,76.1899192 85.5744553,76.2159924 C85.6141521,76.2245432 85.6454402,76.2311482 85.6765985,76.237593 C85.7634723,76.2555576 85.8488034,76.2721787 85.9331262,76.2875618 C85.9879988,76.2975743 86.0428075,76.3071227 86.09718,76.3161377 C86.1104575,76.3183385 86.1232135,76.3204273 86.1359455,76.3224867 C86.1965732,76.3322963 86.2571656,76.3415098 86.3171964,76.3500398 C86.3639916,76.3566857 86.4097803,76.3628321 86.4552353,76.3685737 C86.4826852,76.372044 86.5109325,76.3754738 86.5390493,76.3787454 C86.5946262,76.3852051 86.6486125,76.390943 86.7021046,76.3960849 C86.7255561,76.3983412 86.7495986,76.4005427 86.77354,76.4026225 C86.8137073,76.4061102 86.8532857,76.4092339 86.8925824,76.4120194 C86.9421824,76.415535 86.9912969,76.4185099 87.03996,76.4209447 C87.0620168,76.4220483 87.083979,76.4230408 87.1058482,76.4239222 C87.1544592,76.4258809 87.2025382,76.4272892 87.2501555,76.4281478 L87.3102971,76.428942 L87.3102971,76.428942 L87.3583884,76.4291525 C87.3820846,76.4291618 87.4056623,76.4290305 87.4291211,76.4287582 C87.4694933,76.4282902 87.5095853,76.4274024 87.5493217,76.4260944 C87.6850021,76.4216186 87.8161775,76.4122824 87.9431422,76.3980177 C87.9603901,76.3960784 87.9771789,76.3940955 87.9938932,76.3920254 L88.112995,76.3756068 L88.112995,76.3756068 C77.8951878,81.7576189 65.9223548,82.8634161 54.7708676,79.7356709 L55.0260077,80.1490908 L54.4411374,79.9740464 L54.4411374,79.9740464 L53.9896841,79.8352254 L53.900426,79.8078792 L53.900426,79.8078792 L53.6388731,79.7259387 L53.1724112,79.5771697 L53.1724112,79.5771697 L52.7632788,79.4437995 C52.6481348,79.4058738 52.5336772,79.3678396 52.419906,79.329697 L52.1294297,79.2315693 L52.1294297,79.2315693 L51.6266841,79.0572254 L51.716315,79.0893856 C51.5490622,79.0311807 51.3833705,78.9727292 51.21924,78.9140311 L51.4058769,78.9804337 C50.9014151,78.8018791 50.4113989,78.6209919 49.9359265,78.4378069 C49.7547679,78.3680111 49.575777,78.2979049 49.3989221,78.227476 C48.9492862,78.0484082 48.5140521,77.8675186 48.0924037,77.6844825 C47.5751349,77.45994 47.0781918,77.2321088 46.6017051,77.0010456 C46.4319575,76.9187252 46.2651766,76.8361843 46.1010728,76.7532825 C45.6126402,76.5065414 45.1467885,76.2560214 44.7038362,76.0018834 C44.5269868,75.9004204 44.3535964,75.7982651 44.1838643,75.6955318 C41.4596207,74.0466355 38.1361169,71.6297208 34.2133528,68.4447877 C34.3914562,68.7579549 34.5695579,69.0664311 34.7476579,69.3702163 C34.8078271,69.4728485 34.868233,69.5753449 34.9286387,69.6773016 C35.2034111,70.1410813 35.4781795,70.5936951 35.7529439,71.0351432 C35.9170792,71.2988516 36.0813204,71.5587429 36.2455602,71.8146445 C36.2714397,71.8549682 36.2976682,71.895734 36.3238967,71.9363981 C36.3914664,72.0411542 36.4586676,72.1446716 36.5258687,72.2475209 C36.579234,72.3291906 36.6317177,72.4091038 36.6842013,72.4886095 C36.7541636,72.5945917 36.8238928,72.699502 36.8936217,72.8036931 C36.931386,72.8601226 36.9694118,72.9167292 37.0074376,72.9731219 C37.0814676,73.0829036 37.1546911,73.1906966 37.2279144,73.2976965 C37.2563359,73.3392278 37.2845528,73.3803425 37.3127697,73.4213394 C37.3928583,73.5376979 37.4724435,73.6523885 37.5520283,73.7661422 C37.5932942,73.8251232 37.6340799,73.883172 37.6748655,73.9409746 C37.7482158,74.0449256 37.8210953,74.1474242 37.8939745,74.249137 C37.9389737,74.3119364 37.9832723,74.3734681 38.0275709,74.4347094 C38.1080287,74.5459404 38.1885789,74.65634 38.2691287,74.7657797 C38.3054577,74.8151376 38.3415952,74.8640423 38.3777326,74.9127539 C38.4254549,74.9770809 38.473073,75.0409321 38.520691,75.1044479 C38.5872573,75.1932341 38.6531937,75.2805371 38.7191298,75.367197 C38.7760554,75.4420114 38.8324492,75.5156567 38.8888429,75.5888316 C39.0716617,75.8260521 39.2544811,76.0583313 39.4372987,76.285666 C39.6112765,76.5020152 39.7856493,76.7143593 39.9600204,76.9222051 C40.2264358,77.2397657 40.4928687,77.5468495 40.7592978,77.8434309 C40.9265822,78.0296504 41.0940625,78.2119396 41.2615413,78.3900787 C41.3484739,78.4825431 41.4352164,78.5736924 41.5219584,78.6637284 C41.839152,78.9929582 42.1560592,79.3070362 42.472961,79.606254 L42.0936193,79.2409855 C42.2549899,79.3993876 42.416359,79.5539365 42.5777268,79.7046323 C42.6828147,79.8027669 42.7875741,79.8989713 42.8923328,79.9935517 C42.9204645,80.0189516 42.9491369,80.0447181 42.9778093,80.070363 C43.0779606,80.1599335 43.1775123,80.2475017 43.2770635,80.3336033 C43.3125406,80.3642881 43.3482139,80.3949543 43.3838872,80.4254322 C43.643364,80.647121 43.902894,80.8588906 44.1624203,81.0606926 C44.1890241,81.0813801 44.2160283,81.1022712 44.2430324,81.1230543 C44.3497361,81.2051716 44.4559838,81.2852678 44.5622309,81.3636933 C44.5934174,81.3867139 44.6247551,81.4097008 44.6560928,81.4325424 L44.7198794,81.4788348 L44.7198794,81.4788348 L45.0481445,81.7107224 L45.0481445,81.7107224 C48.5300787,84.1140003 52.8808109,85.5898937 58.1003412,86.1384027 L58.6838643,86.1955318 L58.4176841,85.7382254 L56.9538969,83.229304 L63.0576841,93 L18.5576841,93 L34.3138956,67.8360036 L34.0146812,67.5393487 L34.0146812,67.5393487 C18.7599788,52.2846464 15.9922416,29.4006507 25.9312172,12.0722254 L26.0718071,12.2117564 L25.9721853,12.3358873 C25.942126,12.3760198 25.913245,12.4172032 25.8855362,12.4594281 C25.8561011,12.5042656 25.8277617,12.5506772 25.8007596,12.5982718 C25.7468547,12.6932666 25.6981885,12.7931913 25.6548139,12.8977556 C25.6112014,13.0029074 25.5729791,13.1126136 25.5400352,13.2269056 C25.4406489,13.5716589 25.3892909,13.9582828 25.3843547,14.3840657 C25.3822206,14.56779 25.3887409,14.7589462 25.4037851,14.9571949 C25.4180652,15.1450884 25.4398656,15.3384369 25.4691405,15.5379213 C25.4771259,15.5923491 25.4857247,15.6475799 25.4948846,15.7032697 C25.5272449,15.8999905 25.566569,16.1022662 25.6127828,16.310099 C25.6261213,16.3700838 25.6400191,16.43047 25.6544873,16.4913144 C25.7046428,16.702215 25.7615534,16.9182824 25.8251949,17.1396786 C25.9027045,17.4093767 25.9905171,17.6879004 26.0882008,17.9740941 L26.0885564,17.9751358 C26.1893392,18.2704091 26.3010593,18.5749462 26.4231581,18.8873837 C26.4857864,19.0476479 26.5512509,19.2102451 26.6194272,19.374884 C26.6444661,19.4353482 26.6697301,19.4957546 26.6953544,19.5564311 C26.7472201,19.6792487 26.8006785,19.803438 26.8556086,19.9287215 L26.9633259,20.1715997 C27.1259113,20.5341087 27.3004895,20.905484 27.486798,21.2853102 Z"/>
    <path fill="#A5ACC1" fill-opacity=".4" d="M72.4715753,67.6936631 L79.1890897,69.4614301 C74.9625924,72.9842364 70.6915426,75.1411267 66.3759406,75.9321009 C62.0603386,76.7230752 56.3797429,76.1500493 49.3341536,74.2130233 C54.3600545,73.691298 58.4191434,73.0502426 61.5114202,72.2898572 C64.603697,71.5294718 68.2570821,69.9974071 72.4715753,67.6936631 Z M48.7366294,29.8768573 C73.5501538,29.8768573 93.6654897,34.4226959 93.6654897,40.030272 C93.6654897,45.6378482 73.5501538,50.1836868 48.7366294,50.1836868 C23.9231051,50.1836868 3.80776913,45.6378482 3.80776913,40.030272 C3.80776913,34.4226959 23.9231051,29.8768573 48.7366294,29.8768573 Z" transform="rotate(45 48.737 53.076)"/>
    <path fill="#979797" fill-rule="nonzero" d="M56.8760936,71.4097933 C49.1864717,76.0762742 41.3818418,78.1820545 32.9318948,78.2398134 L32.8624333,78.2400508 L32.6239243,77.2017896 C40.7995724,77.2017896 48.4117065,75.0848505 55.3272515,71.2170491 C55.4183883,71.1660771 55.5093803,71.1148095 55.6002265,71.0632473 L56.8760936,71.4097933 Z" transform="rotate(45 44.75 74.652)"/>
    <path fill="#6397FF" d="M58.7075502,32.3333333 C60.4471733,32.3333333 61.8574164,33.7435765 61.8574164,35.4831995 C61.8574164,36.722666 61.1415149,37.7949248 60.1006514,38.3090362 L61.3146069,54.0162363 L56.4686589,54.0162363 L57.4971966,38.3921307 C56.3583045,37.9177145 55.5576841,36.7939544 55.5576841,35.4831995 C55.5576841,33.7435765 56.9679272,32.3333333 58.7075502,32.3333333 Z" transform="rotate(45 58.708 43.175)"/>
    <path fill="#6397FF" fill-rule="nonzero" d="M3,20 C6.3137085,20 9,22.6862915 9,26 C9,26.340994 8.97155421,26.6753441 8.91690614,27.0008069 L6.87378648,27.0007613 C6.95617749,26.6809122 7,26.3455738 7,26 C7,23.790861 5.209139,22 3,22 L3,20 Z M3,11 C11.2842712,11 18,17.7157288 18,26 C18,26.336312 17.988932,26.670039 17.9671404,27.0008365 L15.962067,27.0005699 C15.9872024,26.6703423 16,26.3366657 16,26 C16,18.8202983 10.1797017,13 3,13 L3,11 Z M3,2 C16.254834,2 27,12.745166 27,26 C27,26.3352495 26.9931261,26.6688935 26.9795117,27.0007988 L24.9776654,27.0002663 C24.9925023,26.6687011 25,26.3352261 25,26 C25,13.8497355 15.1502645,4 3,4 L3,2 Z" transform="translate(66.558 7)"/>
  </g>
</svg>
